<?xml version="1.0" standalone="no"?>
<!DOCTYPE svg PUBLIC "-//W3C//DTD SVG 20010904//EN"
 "http://www.w3.org/TR/2001/REC-SVG-20010904/DTD/svg10.dtd">
<svg version="1.0" xmlns="http://www.w3.org/2000/svg"
 width="604.000000pt" height="604.000000pt" viewBox="0 0 604.000000 604.000000"
 preserveAspectRatio="xMidYMid meet">
<metadata>
Created by potrace 1.14, written by Peter Selinger 2001-2017
</metadata>
<g transform="translate(0.000000,604.000000) scale(0.100000,-0.100000)"
fill="#000000" stroke="none">
<path d="M805 3912 l0 -2127 146 -220 c217 -327 534 -807 724 -1095 92 -140
180 -273 194 -294 14 -21 31 -46 36 -55 6 -9 24 -36 40 -61 16 -25 30 -46 31
-48 2 -4 1511 2 1879 8 l60 1 35 52 c19 28 39 57 43 62 5 6 153 218 331 473
177 254 328 470 334 480 96 136 369 528 416 597 57 82 62 95 63 145 1 30 4
174 8 320 4 146 8 328 10 405 2 77 6 246 10 375 6 262 12 510 20 795 3 105 7
287 10 405 3 118 7 296 10 395 3 99 7 270 10 380 3 110 7 279 10 375 18 648
19 720 11 727 -2 2 -37 -24 -77 -58 -79 -66 -91 -75 -304 -254 -180 -150 -147
-123 -395 -329 -118 -99 -221 -185 -229 -192 -16 -15 -17 -21 -26 -519 -3
-187 -8 -432 -10 -545 -3 -113 -7 -317 -10 -455 -5 -294 -15 -789 -20 -1030
-2 -93 -4 -211 -4 -260 l-1 -91 -54 -89 c-64 -108 -525 -871 -586 -970 -23
-38 -47 -73 -53 -77 -6 -3 -108 -7 -226 -8 -119 0 -344 -2 -501 -3 l-284 -2
-45 75 c-62 106 -139 237 -169 290 -14 25 -67 116 -119 204 -51 87 -93 160
-93 161 0 2 -18 32 -40 66 -22 35 -44 74 -50 87 -5 12 -26 47 -45 77 -19 31
-35 57 -35 60 0 2 -15 30 -34 61 l-35 57 5 681 c2 375 6 1026 8 1448 l5 767
-42 34 c-23 19 -58 50 -78 69 -20 19 -65 58 -100 88 -34 30 -67 60 -73 65 -6
6 -47 41 -91 80 -44 38 -85 74 -91 80 -11 11 -54 48 -279 245 -77 68 -156 137
-175 154 -20 17 -45 39 -55 48 -20 17 -20 5 -20 -2110z"/>
</g>
</svg>
