
<svg width="32" height="32" viewBox="0 0 32 32" fill="none" xmlns="http://www.w3.org/2000/svg">
<path d="M13.5 2.49995C14.8807 1.11924 17.1193 1.11924 18.5 2.49995C19.8807 3.88067 19.8807 6.11925 18.5 7.49996C17.1193 8.88067 14.8807 8.88067 13.5 7.49996C12.1193 6.11925 12.1193 3.88067 13.5 2.49995Z" fill="#933DF0"/>
<path d="M19 7.99995C20.3807 6.61924 22.6193 6.61924 24 7.99995C25.3807 9.38067 25.3807 11.6192 24 13C22.6193 14.3807 20.3807 14.3807 19 13C17.6193 11.6192 17.6193 9.38067 19 7.99995Z" fill="#933DF0"/>
<path d="M24.5 13.5C25.8807 12.1193 28.1193 12.1193 29.5 13.5C30.8807 14.8807 30.8807 17.1193 29.5 18.5C28.1193 19.8807 25.8807 19.8807 24.5 18.5C23.1193 17.1193 23.1193 14.8807 24.5 13.5Z" fill="#933DF0"/>
<path d="M19 19C20.3807 17.6193 22.6193 17.6193 24 19C25.3807 20.3807 25.3807 22.6193 24 24C22.6193 25.3807 20.3807 25.3807 19 24C17.6193 22.6193 17.6193 20.3807 19 19Z" fill="#933DF0"/>
<path fill-rule="evenodd" clip-rule="evenodd" d="M18.5 13.5C19.8807 14.8807 19.8807 17.1193 18.5 18.5C17.1193 19.8807 14.8807 19.8807 13.5 18.5C12.1193 17.1193 12.1193 14.8807 13.5 13.5C14.8807 12.1193 17.1193 12.1193 18.5 13.5ZM14 14C12.8954 15.1046 12.8954 16.8954 14 18C15.1046 19.1046 16.8954 19.1046 18 18C19.1046 16.8954 19.1046 15.1046 18 14C16.8954 12.8954 15.1046 12.8954 14 14Z" fill="#933DF0"/>
<path d="M8 7.99995C9.38071 6.61924 11.6193 6.61924 13 7.99995C14.3807 9.38067 14.3807 11.6192 13 13C11.6193 14.3807 9.38071 14.3807 8 13C6.61928 11.6192 6.61928 9.38067 8 7.99995Z" fill="#933DF0"/>
<path d="M2.49998 13.5C3.8807 12.1193 6.11928 12.1193 7.49999 13.5C8.8807 14.8807 8.8807 17.1193 7.49999 18.5C6.11928 19.8807 3.8807 19.8807 2.49998 18.5C1.11927 17.1193 1.11927 14.8807 2.49998 13.5Z" fill="#933DF0"/>
<path d="M8 19C9.38071 17.6193 11.6193 17.6193 13 19C14.3807 20.3807 14.3807 22.6193 13 24C11.6193 25.3807 9.38071 25.3807 8 24C6.61928 22.6193 6.61928 20.3807 8 19Z" fill="#933DF0"/>
<path d="M13.5 24.5C14.8807 23.1193 17.1193 23.1193 18.5 24.5C19.8807 25.8807 19.8807 28.1193 18.5 29.5C17.1193 30.8807 14.8807 30.8807 13.5 29.5C12.1193 28.1193 12.1193 25.8807 13.5 24.5Z" fill="#933DF0"/>
</svg>
